<svg xmlns="http://www.w3.org/2000/svg" width="950" height="425" viewBox="0 0 950 425" font-family="sans-serif">
<rect width="100%" height="100%" fill="#fbfbf9"/>
<path d="M710.8,222.6 L110.0,315.3 L467.3,110.0 L318.9,223.0 L766.6,194.9 L710.8,222.6" fill="none" stroke="#999" stroke-width="1.5" stroke-dasharray="6 4"/>
<line x1="705.5" y1="186.3" x2="716.1" y2="258.9" stroke="#0a7" stroke-width="3"/>
<circle cx="710.8" cy="222.6" r="3.5" fill="#0a7"/>
<text x="718.8" y="214.6" font-size="14" font-weight="bold" fill="#053">0. Gransden Lodge</text>
<text x="718.8" y="232.6" font-size="11" fill="#555">START line &#177;5km</text>
<path d="M110.0,315.3 L134.8,384.4 L131.1,385.6 L127.4,386.6 L123.6,387.4 L119.9,388.0 L116.0,388.4 L112.2,388.6 L108.4,388.6 L104.5,388.5 L100.7,388.1 L96.9,387.5 L93.2,386.7 L89.4,385.7 L85.8,384.5 L82.2,383.2 L78.7,381.6 L75.3,379.9 L71.9,378.0 L68.7,375.9 L65.6,373.7 L62.6,371.3 L59.7,368.7 L57.0,366.0 L54.4,363.1 L52.0,360.2 L49.7,357.1 L47.6,353.9 L45.7,350.5 L43.9,347.1 L42.4,343.6 L41.0,340.0 L39.8,336.4 L38.8,332.7 L38.0,328.9 L37.3,325.1 L36.9,321.3 L36.7,317.5 L36.7,313.7 L36.9,309.8 L37.3,306.0 L37.9,302.2 L38.6,298.4 L39.6,294.7 L40.8,291.1 L42.2,287.5 L43.7,284.0 L45.4,280.5 L47.3,277.2 L49.4,274.0 L51.7,270.9 L54.1,267.9 L56.6,265.0 L59.3,262.3 L62.2,259.7 L65.2,257.3 L68.3,255.0 L71.5,252.9 L74.8,251.0 L78.2,249.2 L81.7,247.6 L85.3,246.3 Z" fill="#3a7bd5" fill-opacity="0.15" stroke="#3a7bd5" stroke-width="1"/>
<circle cx="110.0" cy="315.3" r="36.7" fill="#e07b39" fill-opacity="0.30" stroke="#e07b39" stroke-width="1.5"/>
<circle cx="110.0" cy="315.3" r="3.5" fill="#111"/>
<text x="118.0" y="307.3" font-size="14" font-weight="bold" fill="#111">1. Banbury</text>
<text x="118.0" y="325.3" font-size="11" fill="#555">sector 10km/90&#176;; barrel 5.0km</text>
<path d="M467.3,110.0 L426.9,48.8 L430.2,46.8 L433.5,44.9 L437.0,43.2 L440.5,41.7 L444.1,40.4 L447.8,39.3 L451.5,38.4 L455.3,37.7 L459.1,37.1 L462.9,36.8 L466.8,36.7 L470.6,36.8 L474.5,37.0 L478.3,37.5 L482.0,38.2 L485.8,39.0 L489.5,40.1 L493.1,41.4 L496.7,42.8 L500.1,44.4 L503.5,46.3 L506.8,48.2 L510.0,50.4 L513.1,52.7 L516.0,55.2 L518.8,57.8 L521.5,60.6 L524.0,63.5 L526.3,66.5 L528.5,69.7 L530.6,72.9 L532.4,76.3 L534.1,79.7 L535.6,83.3 L536.9,86.9 L538.0,90.6 L538.9,94.3 L539.7,98.1 L540.2,101.9 L540.5,105.7 L540.6,109.5 L540.6,113.4 L540.3,117.2 L539.8,121.0 L539.1,124.8 L538.3,128.5 L537.2,132.2 L535.9,135.8 L534.5,139.4 L532.9,142.9 L531.1,146.3 L529.1,149.5 L526.9,152.7 L524.6,155.8 L522.1,158.7 L519.5,161.5 L516.7,164.2 L513.8,166.7 L510.8,169.1 L507.7,171.3 Z" fill="#3a7bd5" fill-opacity="0.15" stroke="#3a7bd5" stroke-width="1"/>
<circle cx="467.3" cy="110.0" r="36.7" fill="#e07b39" fill-opacity="0.30" stroke="#e07b39" stroke-width="1.5"/>
<circle cx="467.3" cy="110.0" r="3.5" fill="#111"/>
<text x="475.3" y="102.0" font-size="14" font-weight="bold" fill="#111">2. Rushden</text>
<text x="475.3" y="120.0" font-size="11" fill="#555">sector 10km/90&#176;; barrel 5.0km</text>
<path d="M318.9,223.0 L344.8,291.6 L341.1,292.8 L337.5,293.9 L333.7,294.8 L329.9,295.5 L326.1,295.9 L322.3,296.2 L318.5,296.3 L314.6,296.2 L310.8,295.9 L307.0,295.3 L303.2,294.6 L299.5,293.7 L295.8,292.6 L292.2,291.3 L288.7,289.8 L285.2,288.1 L281.8,286.3 L278.6,284.2 L275.4,282.1 L272.4,279.7 L269.5,277.2 L266.7,274.5 L264.1,271.7 L261.6,268.8 L259.3,265.7 L257.1,262.6 L255.1,259.3 L253.3,255.9 L251.7,252.4 L250.2,248.9 L249.0,245.2 L247.9,241.5 L247.0,237.8 L246.4,234.0 L245.9,230.2 L245.6,226.4 L245.5,222.5 L245.6,218.7 L246.0,214.9 L246.5,211.1 L247.2,207.3 L248.1,203.6 L249.2,199.9 L250.5,196.3 L252.0,192.7 L253.7,189.3 L255.5,185.9 L257.6,182.7 L259.8,179.5 L262.1,176.5 L264.6,173.6 L267.3,170.8 L270.1,168.2 L273.0,165.7 L276.1,163.4 L279.3,161.2 L282.5,159.2 L285.9,157.4 L289.4,155.8 L293.0,154.3 Z" fill="#3a7bd5" fill-opacity="0.15" stroke="#3a7bd5" stroke-width="1"/>
<circle cx="318.9" cy="223.0" r="36.7" fill="#e07b39" fill-opacity="0.30" stroke="#e07b39" stroke-width="1.5"/>
<circle cx="318.9" cy="223.0" r="3.5" fill="#111"/>
<text x="326.9" y="215.0" font-size="14" font-weight="bold" fill="#111">3. Northampton South</text>
<text x="326.9" y="233.0" font-size="11" fill="#555">sector 10km/90&#176;; barrel 5.0km</text>
<path d="M766.6,194.9 L840.4,68.1 L847.0,72.1 L853.3,76.5 L859.4,81.2 L865.2,86.2 L870.7,91.5 L876.0,97.1 L881.0,103.0 L885.6,109.1 L889.9,115.4 L893.9,122.0 L897.6,128.7 L900.9,135.7 L903.8,142.8 L906.3,150.0 L908.5,157.4 L910.2,164.9 L911.6,172.4 L912.6,180.1 L913.2,187.7 L913.3,195.4 L913.1,203.1 L912.5,210.7 L911.4,218.3 L910.0,225.9 L908.2,233.3 L906.0,240.7 L903.4,247.9 L900.4,255.0 L897.1,261.9 L893.4,268.7 Z" fill="#3a7bd5" fill-opacity="0.15" stroke="#3a7bd5" stroke-width="1"/>
<circle cx="766.6" cy="194.9" r="3.7" fill="#e07b39" fill-opacity="0.30" stroke="#e07b39" stroke-width="1.5"/>
<circle cx="766.6" cy="194.9" r="3.5" fill="#111"/>
<text x="774.6" y="186.9" font-size="14" font-weight="bold" fill="#111">4. Hardwick</text>
<text x="774.6" y="204.9" font-size="11" fill="#555">sector 20km/45&#176;; barrel 0.5km</text>
<circle cx="710.8" cy="222.6" r="22.0" fill="#e07b39" fill-opacity="0.15" stroke="#e07b39" stroke-width="1.5"/>
<circle cx="710.8" cy="222.6" r="3.5" fill="#111"/>
<text x="718.8" y="214.6" font-size="14" font-weight="bold" fill="#111">5. Gransden Lodge</text>
<text x="718.8" y="232.6" font-size="11" fill="#555">finish ring 3km</text>
<text x="18" y="32" font-size="20" font-weight="bold">DAY1</text>
<line x1="18" y1="405" x2="91" y2="405" stroke="#000" stroke-width="2"/>
<text x="18" y="399" font-size="12">10 km</text>
<text x="906" y="26" font-size="13">N &#8593;</text>
</svg>
