<svg xmlns="http://www.w3.org/2000/svg" width="950" height="405" viewBox="0 0 950 405" font-family="sans-serif">
<rect width="100%" height="100%" fill="#fbfbf9"/>
<path d="M729.4,227.5 L101.5,303.8 L798.1,101.5 L504.9,123.7 L780.8,202.0 L729.4,227.5" fill="none" stroke="#999" stroke-width="1.5" stroke-dasharray="6 4"/>
<line x1="725.6" y1="193.9" x2="733.2" y2="261.1" stroke="#0a7" stroke-width="3"/>
<circle cx="729.4" cy="227.5" r="3.5" fill="#0a7"/>
<text x="737.4" y="219.5" font-size="14" font-weight="bold" fill="#053">0. Gransden Lodge</text>
<text x="737.4" y="237.5" font-size="11" fill="#555">START line &#177;5km</text>
<path d="M101.5,303.8 L115.7,369.9 L112.2,370.6 L108.7,371.1 L105.2,371.3 L101.6,371.4 L98.1,371.4 L94.6,371.1 L91.1,370.6 L87.6,370.0 L84.1,369.2 L80.7,368.2 L77.4,367.0 L74.1,365.6 L70.9,364.1 L67.8,362.4 L64.8,360.6 L61.8,358.6 L59.0,356.4 L56.3,354.1 L53.8,351.7 L51.3,349.1 L49.0,346.5 L46.8,343.7 L44.8,340.7 L43.0,337.7 L41.3,334.6 L39.7,331.4 L38.4,328.1 L37.2,324.8 L36.2,321.4 L35.3,318.0 L34.7,314.5 L34.2,311.0 L33.9,307.4 L33.8,303.9 L33.9,300.4 L34.2,296.8 L34.6,293.3 L35.3,289.8 L36.1,286.4 L37.1,283.0 L38.3,279.6 L39.6,276.4 L41.1,273.2 L42.8,270.1 L44.7,267.0 L46.7,264.1 L48.8,261.3 L51.1,258.6 L53.6,256.0 L56.1,253.6 L58.8,251.3 L61.6,249.1 L64.5,247.1 L67.5,245.2 L70.7,243.5 L73.9,242.0 L77.1,240.6 L80.5,239.5 L83.9,238.4 L87.3,237.6 Z" fill="#3a7bd5" fill-opacity="0.15" stroke="#3a7bd5" stroke-width="1"/>
<circle cx="101.5" cy="303.8" r="33.8" fill="#e07b39" fill-opacity="0.30" stroke="#e07b39" stroke-width="1.5"/>
<circle cx="101.5" cy="303.8" r="3.5" fill="#111"/>
<text x="109.5" y="295.8" font-size="14" font-weight="bold" fill="#111">1. Edgehill</text>
<text x="109.5" y="313.8" font-size="11" fill="#555">sector 10km/90&#176;; barrel 5.0km</text>
<path d="M798.1,101.5 L786.5,34.8 L790.0,34.3 L793.5,34.0 L797.1,33.8 L800.6,33.9 L804.1,34.1 L807.7,34.5 L811.2,35.1 L814.6,35.9 L818.0,36.8 L821.4,38.0 L824.7,39.3 L827.9,40.8 L831.0,42.4 L834.1,44.2 L837.0,46.2 L839.9,48.3 L842.6,50.6 L845.2,53.0 L847.7,55.5 L850.0,58.2 L852.2,60.9 L854.3,63.8 L856.2,66.8 L857.9,69.9 L859.5,73.1 L860.9,76.3 L862.1,79.7 L863.2,83.0 L864.0,86.5 L864.7,89.9 L865.2,93.4 L865.6,97.0 L865.7,100.5 L865.7,104.1 L865.5,107.6 L865.0,111.1 L864.4,114.6 L863.7,118.1 L862.7,121.5 L861.6,124.8 L860.3,128.1 L858.8,131.3 L857.2,134.5 L855.3,137.5 L853.4,140.5 L851.3,143.3 L849.0,146.0 L846.6,148.6 L844.1,151.1 L841.4,153.5 L838.6,155.7 L835.7,157.7 L832.7,159.6 L829.7,161.3 L826.5,162.9 L823.2,164.3 L819.9,165.5 L816.5,166.6 L813.1,167.5 L809.6,168.2 Z" fill="#3a7bd5" fill-opacity="0.15" stroke="#3a7bd5" stroke-width="1"/>
<circle cx="798.1" cy="101.5" r="33.8" fill="#e07b39" fill-opacity="0.30" stroke="#e07b39" stroke-width="1.5"/>
<circle cx="798.1" cy="101.5" r="3.5" fill="#111"/>
<text x="806.1" y="93.5" font-size="14" font-weight="bold" fill="#111">2. Earith</text>
<text x="806.1" y="111.5" font-size="11" fill="#555">sector 10km/90&#176;; barrel 5.0km</text>
<path d="M504.9,123.7 L498.4,191.0 L494.9,190.6 L491.4,190.0 L487.9,189.2 L484.5,188.2 L481.2,187.1 L477.9,185.7 L474.7,184.2 L471.5,182.6 L468.5,180.7 L465.6,178.8 L462.7,176.6 L460.0,174.4 L457.4,171.9 L455.0,169.4 L452.6,166.7 L450.5,163.9 L448.4,161.0 L446.6,158.0 L444.8,154.9 L443.3,151.7 L441.9,148.5 L440.7,145.1 L439.7,141.8 L438.8,138.3 L438.1,134.8 L437.6,131.3 L437.3,127.8 L437.2,124.3 L437.3,120.7 L437.5,117.2 L437.9,113.7 L438.6,110.2 L439.4,106.7 L440.3,103.3 L441.5,100.0 L442.8,96.7 L444.3,93.5 L446.0,90.4 L447.8,87.3 L449.8,84.4 L451.9,81.5 L454.2,78.8 L456.6,76.2 L459.2,73.8 L461.8,71.5 L464.6,69.3 L467.5,67.2 L470.5,65.4 L473.6,63.7 L476.8,62.1 L480.1,60.7 L483.4,59.5 L486.8,58.5 L490.2,57.6 L493.7,56.9 L497.2,56.4 L500.8,56.1 L504.3,56.0 L507.8,56.1 L511.4,56.3 Z" fill="#3a7bd5" fill-opacity="0.15" stroke="#3a7bd5" stroke-width="1"/>
<circle cx="504.9" cy="123.7" r="33.8" fill="#e07b39" fill-opacity="0.30" stroke="#e07b39" stroke-width="1.5"/>
<circle cx="504.9" cy="123.7" r="3.5" fill="#111"/>
<text x="512.9" y="115.7" font-size="14" font-weight="bold" fill="#111">3. Rushden</text>
<text x="512.9" y="133.7" font-size="11" fill="#555">sector 10km/90&#176;; barrel 5.0km</text>
<path d="M780.8,202.0 L867.6,98.1 L872.9,102.8 L878.0,107.7 L882.8,112.9 L887.3,118.4 L891.5,124.1 L895.4,130.0 L899.0,136.1 L902.3,142.3 L905.3,148.8 L907.9,155.4 L910.2,162.1 L912.1,168.9 L913.6,175.8 L914.8,182.8 L915.6,189.8 L916.1,196.9 L916.2,204.0 L915.9,211.1 L915.2,218.1 L914.2,225.1 L912.8,232.1 L911.0,239.0 L908.9,245.7 L906.4,252.4 L903.6,258.9 L900.5,265.2 L897.0,271.4 L893.2,277.4 L889.1,283.2 L884.7,288.7 Z" fill="#3a7bd5" fill-opacity="0.15" stroke="#3a7bd5" stroke-width="1"/>
<circle cx="780.8" cy="202.0" r="3.4" fill="#e07b39" fill-opacity="0.30" stroke="#e07b39" stroke-width="1.5"/>
<circle cx="780.8" cy="202.0" r="3.5" fill="#111"/>
<text x="788.8" y="194.0" font-size="14" font-weight="bold" fill="#111">4. Hardwick</text>
<text x="788.8" y="212.0" font-size="11" fill="#555">sector 20km/45&#176;; barrel 0.5km</text>
<circle cx="729.4" cy="227.5" r="20.3" fill="#e07b39" fill-opacity="0.15" stroke="#e07b39" stroke-width="1.5"/>
<circle cx="729.4" cy="227.5" r="3.5" fill="#111"/>
<text x="737.4" y="219.5" font-size="14" font-weight="bold" fill="#111">5. Gransden Lodge</text>
<text x="737.4" y="237.5" font-size="11" fill="#555">finish ring 3km</text>
<text x="18" y="32" font-size="20" font-weight="bold">DAY2</text>
<line x1="18" y1="385" x2="86" y2="385" stroke="#000" stroke-width="2"/>
<text x="18" y="379" font-size="12">10 km</text>
<text x="906" y="26" font-size="13">N &#8593;</text>
</svg>
