<svg xmlns="http://www.w3.org/2000/svg" width="950" height="668" viewBox="0 0 950 668" font-family="sans-serif">
<rect width="100%" height="100%" fill="#fbfbf9"/>
<path d="M694.6,471.3 L195.9,249.7 L597.5,195.9 L276.7,471.8 L754.1,441.8 L694.6,471.3" fill="none" stroke="#999" stroke-width="1.5" stroke-dasharray="6 4"/>
<line x1="710.8" y1="435.6" x2="678.5" y2="507.0" stroke="#0a7" stroke-width="3"/>
<circle cx="694.6" cy="471.3" r="3.5" fill="#0a7"/>
<text x="702.6" y="463.3" font-size="14" font-weight="bold" fill="#053">0. Gransden Lodge</text>
<text x="702.6" y="481.3" font-size="11" fill="#555">START line &#177;5km</text>
<path d="M195.9,249.7 L174.6,405.0 L166.5,403.6 L158.5,401.9 L150.5,399.7 L142.8,397.1 L135.1,394.2 L127.6,390.8 L120.3,387.0 L113.3,382.9 L106.4,378.4 L99.8,373.5 L93.5,368.3 L87.4,362.8 L81.6,356.9 L76.2,350.8 L71.0,344.4 L66.2,337.7 L61.8,330.8 L57.8,323.7 L54.1,316.4 L50.8,308.9 L47.9,301.2 L45.4,293.4 L43.3,285.4 L41.6,277.4 L40.4,269.3 L39.6,261.1 L39.2,252.9 L39.3,244.7 L39.7,236.5 L40.6,228.4 L42.0,220.3 L43.7,212.3 L45.9,204.4 L48.5,196.6 L51.4,188.9 L54.8,181.4 L58.6,174.2 L62.7,167.1 L67.2,160.2 L72.1,153.6 L77.3,147.3 L82.8,141.2 L88.7,135.4 L94.8,130.0 L101.2,124.8 L107.9,120.0 L114.8,115.6 L121.9,111.6 L129.2,107.9 L136.7,104.6 L144.4,101.7 L152.2,99.2 L160.2,97.1 L168.2,95.4 L176.3,94.2 L184.5,93.4 L192.7,93.0 L200.9,93.1 L209.1,93.5 L217.2,94.4 Z" fill="#3a7bd5" fill-opacity="0.15" stroke="#3a7bd5" stroke-width="1"/>
<circle cx="195.9" cy="249.7" r="39.2" fill="#e07b39" fill-opacity="0.30" stroke="#e07b39" stroke-width="1.5"/>
<circle cx="195.9" cy="249.7" r="3.5" fill="#111"/>
<text x="203.9" y="241.7" font-size="14" font-weight="bold" fill="#111">1. Husbands Bosworth</text>
<text x="203.9" y="259.7" font-size="11" fill="#555">sector 20km/90&#176;; barrel 5.0km</text>
<path d="M597.5,195.9 L533.9,52.7 L541.5,49.5 L549.2,46.8 L557.1,44.5 L565.1,42.6 L573.1,41.1 L581.3,40.0 L589.4,39.4 L597.6,39.2 L605.9,39.4 L614.0,40.1 L622.2,41.1 L630.2,42.6 L638.2,44.6 L646.1,46.9 L653.8,49.7 L661.4,52.8 L668.8,56.3 L676.0,60.3 L683.0,64.6 L689.7,69.2 L696.2,74.2 L702.5,79.6 L708.4,85.2 L714.1,91.2 L719.4,97.4 L724.4,103.9 L729.0,110.7 L733.3,117.7 L737.2,124.9 L740.7,132.3 L743.8,139.9 L746.6,147.7 L748.9,155.5 L750.8,163.5 L752.3,171.6 L753.3,179.7 L754.0,187.9 L754.2,196.1 L754.0,204.3 L753.3,212.5 L752.2,220.6 L750.7,228.7 L748.8,236.6 L746.5,244.5 L743.7,252.2 L740.6,259.8 L737.0,267.2 L733.1,274.4 L728.8,281.4 L724.1,288.2 L719.1,294.7 L713.8,300.9 L708.1,306.9 L702.2,312.5 L695.9,317.8 L689.4,322.8 L682.7,327.4 L675.7,331.7 L668.4,335.6 L661.0,339.1 Z" fill="#3a7bd5" fill-opacity="0.15" stroke="#3a7bd5" stroke-width="1"/>
<circle cx="597.5" cy="195.9" r="39.2" fill="#e07b39" fill-opacity="0.30" stroke="#e07b39" stroke-width="1.5"/>
<circle cx="597.5" cy="195.9" r="3.5" fill="#111"/>
<text x="605.5" y="187.9" font-size="14" font-weight="bold" fill="#111">2. Norman Cross</text>
<text x="605.5" y="205.9" font-size="11" fill="#555">sector 20km/90&#176;; barrel 5.0km</text>
<path d="M276.7,471.8 L336.6,616.6 L328.9,619.5 L321.1,622.1 L313.2,624.2 L305.2,625.9 L297.1,627.2 L288.9,628.0 L280.7,628.4 L272.5,628.4 L264.3,628.0 L256.2,627.1 L248.1,625.8 L240.0,624.1 L232.1,622.0 L224.3,619.5 L216.6,616.5 L209.2,613.2 L201.8,609.4 L194.7,605.3 L187.9,600.9 L181.2,596.0 L174.9,590.9 L168.8,585.4 L163.0,579.6 L157.5,573.5 L152.3,567.1 L147.5,560.4 L143.0,553.6 L138.9,546.4 L135.2,539.1 L131.9,531.6 L129.0,524.0 L126.4,516.2 L124.3,508.2 L122.6,500.2 L121.3,492.1 L120.5,483.9 L120.1,475.8 L120.1,467.5 L120.5,459.4 L121.4,451.2 L122.7,443.1 L124.4,435.1 L126.5,427.1 L129.0,419.3 L132.0,411.7 L135.3,404.2 L139.1,396.9 L143.2,389.8 L147.6,382.9 L152.5,376.3 L157.6,369.9 L163.1,363.8 L168.9,358.0 L175.0,352.5 L181.4,347.4 L188.1,342.5 L194.9,338.1 L202.0,334.0 L209.4,330.3 L216.9,326.9 Z" fill="#3a7bd5" fill-opacity="0.15" stroke="#3a7bd5" stroke-width="1"/>
<circle cx="276.7" cy="471.8" r="39.2" fill="#e07b39" fill-opacity="0.30" stroke="#e07b39" stroke-width="1.5"/>
<circle cx="276.7" cy="471.8" r="3.5" fill="#111"/>
<text x="284.7" y="463.8" font-size="14" font-weight="bold" fill="#111">3. Northampton South</text>
<text x="284.7" y="481.8" font-size="11" fill="#555">sector 20km/90&#176;; barrel 5.0km</text>
<path d="M754.1,441.8 L832.9,306.3 L839.9,310.6 L846.7,315.3 L853.2,320.3 L859.4,325.7 L865.3,331.3 L870.9,337.3 L876.2,343.6 L881.2,350.1 L885.8,356.9 L890.1,363.9 L894.0,371.1 L897.5,378.5 L900.6,386.1 L903.3,393.9 L905.6,401.7 L907.5,409.7 L909.0,417.8 L910.0,425.9 L910.6,434.1 L910.8,442.3 L910.6,450.5 L909.9,458.7 L908.8,466.8 L907.3,474.9 L905.3,482.9 L903.0,490.7 L900.2,498.4 L897.0,506.0 L893.5,513.4 L889.5,520.6 Z" fill="#3a7bd5" fill-opacity="0.15" stroke="#3a7bd5" stroke-width="1"/>
<circle cx="754.1" cy="441.8" r="3.9" fill="#e07b39" fill-opacity="0.30" stroke="#e07b39" stroke-width="1.5"/>
<circle cx="754.1" cy="441.8" r="3.5" fill="#111"/>
<text x="762.1" y="433.8" font-size="14" font-weight="bold" fill="#111">4. Hardwick</text>
<text x="762.1" y="451.8" font-size="11" fill="#555">sector 20km/45&#176;; barrel 0.5km</text>
<circle cx="694.6" cy="471.3" r="23.5" fill="#e07b39" fill-opacity="0.15" stroke="#e07b39" stroke-width="1.5"/>
<circle cx="694.6" cy="471.3" r="3.5" fill="#111"/>
<text x="702.6" y="463.3" font-size="14" font-weight="bold" fill="#111">5. Gransden Lodge</text>
<text x="702.6" y="481.3" font-size="11" fill="#555">finish ring 3km</text>
<text x="18" y="32" font-size="20" font-weight="bold">DAY3</text>
<line x1="18" y1="648" x2="96" y2="648" stroke="#000" stroke-width="2"/>
<text x="18" y="642" font-size="12">10 km</text>
<text x="906" y="26" font-size="13">N &#8593;</text>
</svg>
