<svg xmlns="http://www.w3.org/2000/svg" width="950" height="598" viewBox="0 0 950 598" font-family="sans-serif">
<rect width="100%" height="100%" fill="#fbfbf9"/>
<path d="M811.9,315.6 L573.4,234.2 L246.5,364.2 L435.3,353.6 L234.2,270.0 L715.8,291.3 L811.9,315.6" fill="none" stroke="#999" stroke-width="1.5" stroke-dasharray="6 4"/>
<line x1="827.1" y1="271.3" x2="796.6" y2="359.9" stroke="#0a7" stroke-width="3"/>
<circle cx="811.9" cy="315.6" r="3.5" fill="#0a7"/>
<text x="819.9" y="307.6" font-size="14" font-weight="bold" fill="#053">0. Gransden Lodge</text>
<text x="819.9" y="325.6" font-size="11" fill="#555">START line &#177;5km</text>
<path d="M573.4,234.2 L437.7,105.0 L444.7,98.0 L452.0,91.5 L459.6,85.3 L467.5,79.6 L475.8,74.3 L484.3,69.4 L493.0,64.9 L502.0,61.0 L511.2,57.5 L520.5,54.5 L530.0,51.9 L539.6,49.9 L549.3,48.4 L559.0,47.4 L568.8,46.9 L578.6,46.9 L588.4,47.4 L598.2,48.5 L607.9,50.0 L617.4,52.1 L626.9,54.7 L636.2,57.7 L645.4,61.2 L654.3,65.2 L663.1,69.7 L671.6,74.6 L679.8,80.0 L687.7,85.8 L695.3,92.0 L702.6,98.5 Z" fill="#3a7bd5" fill-opacity="0.15" stroke="#3a7bd5" stroke-width="1"/>
<circle cx="573.4" cy="234.2" r="4.7" fill="#e07b39" fill-opacity="0.30" stroke="#e07b39" stroke-width="1.5"/>
<circle cx="573.4" cy="234.2" r="3.5" fill="#111"/>
<text x="581.4" y="226.2" font-size="14" font-weight="bold" fill="#111">1. Sackville</text>
<text x="581.4" y="244.2" font-size="11" fill="#555">sector 20km/45&#176;; barrel 0.5km</text>
<path d="M246.5,364.2 L287.4,547.0 L277.7,548.9 L268.0,550.3 L258.3,551.2 L248.5,551.5 L238.7,551.4 L228.9,550.7 L219.1,549.6 L209.5,547.9 L199.9,545.7 L190.5,543.0 L181.2,539.8 L172.1,536.2 L163.2,532.0 L154.5,527.5 L146.1,522.4 L138.0,517.0 L130.1,511.1 L122.6,504.8 L115.4,498.1 L108.6,491.1 L102.1,483.7 L96.1,475.9 L90.4,467.9 L85.2,459.6 L80.4,451.0 L76.1,442.2 L72.3,433.2 L68.9,424.0 L66.0,414.6 L63.6,405.1 L61.7,395.5 L60.3,385.8 L59.5,376.0 L59.1,366.2 L59.3,356.4 L59.9,346.6 L61.1,336.9 L62.8,327.2 L65.0,317.7 L67.7,308.2 L70.8,298.9 L74.5,289.8 L78.6,280.9 L83.2,272.3 L88.2,263.9 L93.7,255.7 L99.6,247.9 L105.9,240.3 L112.6,233.2 L119.6,226.3 L127.0,219.9 L134.7,213.8 L142.7,208.2 L151.0,203.0 L159.6,198.2 L168.4,193.9 L177.4,190.0 L186.6,186.6 L196.0,183.8 L205.5,181.4 Z" fill="#3a7bd5" fill-opacity="0.15" stroke="#3a7bd5" stroke-width="1"/>
<circle cx="246.5" cy="364.2" r="46.8" fill="#e07b39" fill-opacity="0.30" stroke="#e07b39" stroke-width="1.5"/>
<circle cx="246.5" cy="364.2" r="3.5" fill="#111"/>
<text x="254.5" y="356.2" font-size="14" font-weight="bold" fill="#111">2. Towcester</text>
<text x="254.5" y="374.2" font-size="11" fill="#555">sector 20km/90&#176;; barrel 5.0km</text>
<path d="M435.3,353.6 L467.2,168.9 L476.8,170.9 L486.3,173.3 L495.7,176.2 L504.9,179.6 L513.9,183.5 L522.7,187.8 L531.2,192.6 L539.5,197.9 L547.5,203.5 L555.2,209.6 L562.6,216.1 L569.6,222.9 L576.3,230.1 L582.5,237.7 L588.4,245.5 L593.9,253.7 L598.9,262.1 L603.4,270.8 L607.5,279.7 L611.2,288.8 L614.3,298.1 L617.0,307.6 L619.1,317.1 L620.8,326.8 L621.9,336.5 L622.6,346.3 L622.7,356.1 L622.3,365.9 L621.4,375.7 L620.0,385.4 L618.0,395.0 L615.6,404.5 L612.7,413.9 L609.3,423.1 L605.4,432.1 L601.1,440.9 L596.3,449.5 L591.0,457.8 L585.4,465.8 L579.3,473.5 L572.8,480.8 L566.0,487.9 L558.8,494.5 L551.2,500.8 L543.4,506.6 L535.2,512.1 L526.8,517.1 L518.1,521.7 L509.2,525.8 L500.1,529.4 L490.8,532.5 L481.3,535.2 L471.8,537.3 L462.1,539.0 L452.4,540.1 L442.6,540.8 L432.8,540.9 L423.0,540.5 L413.2,539.6 L403.5,538.2 Z" fill="#3a7bd5" fill-opacity="0.15" stroke="#3a7bd5" stroke-width="1"/>
<circle cx="435.3" cy="353.6" r="46.8" fill="#e07b39" fill-opacity="0.30" stroke="#e07b39" stroke-width="1.5"/>
<circle cx="435.3" cy="353.6" r="3.5" fill="#111"/>
<text x="443.3" y="345.6" font-size="14" font-weight="bold" fill="#111">3. Olney</text>
<text x="443.3" y="363.6" font-size="11" fill="#555">sector 20km/90&#176;; barrel 5.0km</text>
<path d="M234.2,270.0 L194.2,453.0 L184.6,450.7 L175.3,447.9 L166.0,444.5 L157.0,440.7 L148.2,436.4 L139.6,431.7 L131.2,426.5 L123.2,420.9 L115.4,414.9 L108.0,408.5 L100.9,401.7 L94.2,394.6 L87.9,387.1 L82.0,379.2 L76.5,371.1 L71.4,362.7 L66.8,354.1 L62.6,345.2 L58.9,336.1 L55.7,326.9 L52.9,317.4 L50.7,307.9 L49.0,298.2 L47.8,288.5 L47.0,278.7 L46.8,268.9 L47.2,259.1 L48.0,249.3 L49.3,239.6 L51.2,230.0 L53.5,220.5 L56.4,211.1 L59.7,201.8 L63.5,192.8 L67.8,184.0 L72.5,175.4 L77.7,167.0 L83.3,159.0 L89.3,151.3 L95.7,143.8 L102.5,136.8 L109.6,130.0 L117.1,123.7 L125.0,117.8 L133.1,112.3 L141.5,107.2 L150.1,102.6 L159.0,98.4 L168.1,94.7 L177.3,91.5 L186.8,88.8 L196.3,86.5 L206.0,84.8 L215.7,83.6 L225.5,82.9 L235.3,82.7 L245.1,83.0 L254.9,83.8 L264.6,85.1 L274.2,87.0 Z" fill="#3a7bd5" fill-opacity="0.15" stroke="#3a7bd5" stroke-width="1"/>
<circle cx="234.2" cy="270.0" r="46.8" fill="#e07b39" fill-opacity="0.30" stroke="#e07b39" stroke-width="1.5"/>
<circle cx="234.2" cy="270.0" r="3.5" fill="#111"/>
<text x="242.2" y="262.0" font-size="14" font-weight="bold" fill="#111">4. Northampton West</text>
<text x="242.2" y="280.0" font-size="11" fill="#555">sector 20km/90&#176;; barrel 5.0km</text>
<path d="M715.8,291.3 L604.3,140.8 L612.3,135.2 L620.6,130.0 L629.2,125.2 L638.0,120.9 L647.0,117.1 L656.3,113.7 L665.6,110.8 L675.1,108.5 L684.8,106.6 L694.5,105.2 L704.3,104.3 L714.1,104.0 L723.9,104.2 L733.7,104.8 L743.4,106.0 L753.1,107.7 L762.6,109.9 L772.0,112.6 L781.3,115.8 L790.4,119.5 L799.3,123.6 L808.0,128.2 L816.4,133.3 L824.5,138.8 L832.4,144.6 L839.9,150.9 L847.0,157.6 L853.9,164.7 L860.3,172.1 L866.3,179.8 Z" fill="#3a7bd5" fill-opacity="0.15" stroke="#3a7bd5" stroke-width="1"/>
<circle cx="715.8" cy="291.3" r="4.7" fill="#e07b39" fill-opacity="0.30" stroke="#e07b39" stroke-width="1.5"/>
<circle cx="715.8" cy="291.3" r="3.5" fill="#111"/>
<text x="723.8" y="283.3" font-size="14" font-weight="bold" fill="#111">5. St Neots</text>
<text x="723.8" y="301.3" font-size="11" fill="#555">sector 20km/45&#176;; barrel 0.5km</text>
<circle cx="811.9" cy="315.6" r="28.1" fill="#e07b39" fill-opacity="0.15" stroke="#e07b39" stroke-width="1.5"/>
<circle cx="811.9" cy="315.6" r="3.5" fill="#111"/>
<text x="819.9" y="307.6" font-size="14" font-weight="bold" fill="#111">6. Gransden Lodge</text>
<text x="819.9" y="325.6" font-size="11" fill="#555">finish ring 3km</text>
<text x="18" y="32" font-size="20" font-weight="bold">DAY4</text>
<line x1="18" y1="578" x2="112" y2="578" stroke="#000" stroke-width="2"/>
<text x="18" y="572" font-size="12">10 km</text>
<text x="906" y="26" font-size="13">N &#8593;</text>
</svg>
