<svg xmlns="http://www.w3.org/2000/svg" width="950" height="509" viewBox="0 0 950 509" font-family="sans-serif">
<rect width="100%" height="100%" fill="#fbfbf9"/>
<path d="M149.2,257.8 L293.4,286.2 L537.7,294.3 L735.6,214.4 L437.1,275.6 L628.8,214.8 L293.4,286.2 L214.4,225.5 L149.2,257.8" fill="none" stroke="#999" stroke-width="1.5" stroke-dasharray="6 4"/>
<line x1="141.0" y1="299.9" x2="157.4" y2="215.7" stroke="#0a7" stroke-width="3"/>
<circle cx="149.2" cy="257.8" r="3.5" fill="#0a7"/>
<text x="157.2" y="249.8" font-size="14" font-weight="bold" fill="#053">0. Gransden Lodge</text>
<text x="157.2" y="267.8" font-size="11" fill="#555">START line &#177;5km</text>
<path d="M293.4,286.2 L400.2,420.4 L393.0,425.8 L385.6,430.8 L377.9,435.5 L370.0,439.7 L361.8,443.5 L353.5,446.9 L345.0,449.8 L336.4,452.3 L327.6,454.3 L318.8,455.9 L309.9,457.0 L300.9,457.6 L291.9,457.7 L282.9,457.4 L274.0,456.7 L265.1,455.4 L256.3,453.7 L247.6,451.5 L239.0,448.9 L230.5,445.8 L222.3,442.3 L214.2,438.4 L206.3,434.0 L198.7,429.3 L191.4,424.1 L184.3,418.6 L177.5,412.7 L171.0,406.5 L164.9,399.9 L159.1,393.0 Z" fill="#3a7bd5" fill-opacity="0.15" stroke="#3a7bd5" stroke-width="1"/>
<circle cx="293.4" cy="286.2" r="4.3" fill="#e07b39" fill-opacity="0.30" stroke="#e07b39" stroke-width="1.5"/>
<circle cx="293.4" cy="286.2" r="3.5" fill="#111"/>
<text x="301.4" y="278.2" font-size="14" font-weight="bold" fill="#111">1. Cambridge South</text>
<text x="301.4" y="296.2" font-size="11" fill="#555">sector 20km/45&#176;; barrel 0.5km</text>
<path d="M537.7,294.3 L678.2,392.6 L672.9,399.9 L667.2,406.8 L661.1,413.4 L654.7,419.7 L648.0,425.7 L641.0,431.3 L633.7,436.5 L626.1,441.3 L618.3,445.7 L610.2,449.7 L602.0,453.3 L593.6,456.5 L585.0,459.2 L576.3,461.4 L567.5,463.2 L558.6,464.6 L549.7,465.4 L540.7,465.8 L531.7,465.7 L522.8,465.2 L513.9,464.2 L505.0,462.7 L496.2,460.8 L487.6,458.4 L479.0,455.5 L470.7,452.2 L462.5,448.5 L454.5,444.4 L446.8,439.8 L439.3,434.9 Z" fill="#3a7bd5" fill-opacity="0.15" stroke="#3a7bd5" stroke-width="1"/>
<circle cx="537.7" cy="294.3" r="4.3" fill="#e07b39" fill-opacity="0.30" stroke="#e07b39" stroke-width="1.5"/>
<circle cx="537.7" cy="294.3" r="3.5" fill="#111"/>
<text x="545.7" y="286.3" font-size="14" font-weight="bold" fill="#111">2. Stradishall</text>
<text x="545.7" y="304.3" font-size="11" fill="#555">sector 20km/45&#176;; barrel 0.5km</text>
<path d="M735.6,214.4 L686.5,50.0 L695.2,47.7 L704.0,45.8 L712.8,44.4 L721.8,43.4 L730.7,43.0 L739.7,42.9 L748.7,43.4 L757.6,44.3 L766.5,45.7 L775.3,47.6 L784.0,49.9 L792.5,52.6 L800.9,55.8 L809.1,59.5 L817.1,63.5 L824.9,68.0 L832.5,72.9 L839.7,78.1 L846.7,83.8 L853.4,89.8 L859.8,96.1 L865.8,102.8 L871.5,109.7 L876.8,117.0 L881.7,124.5 L886.2,132.3 L890.3,140.3 L893.9,148.5 L897.2,156.9 L900.0,165.4 L902.3,174.1 L904.2,182.9 L905.6,191.7 L906.6,200.7 L907.0,209.6 L907.1,218.6 L906.6,227.6 L905.7,236.5 L904.3,245.4 L902.4,254.2 L900.1,262.9 L897.4,271.4 L894.2,279.8 L890.5,288.0 L886.5,296.0 L882.0,303.8 L877.1,311.4 L871.9,318.6 L866.2,325.6 L860.2,332.3 L853.9,338.7 L847.2,344.7 L840.3,350.4 L833.0,355.6 L825.5,360.6 L817.7,365.1 L809.7,369.2 L801.5,372.8 L793.1,376.1 L784.6,378.9 Z" fill="#3a7bd5" fill-opacity="0.15" stroke="#3a7bd5" stroke-width="1"/>
<circle cx="735.6" cy="214.4" r="42.9" fill="#e07b39" fill-opacity="0.30" stroke="#e07b39" stroke-width="1.5"/>
<circle cx="735.6" cy="214.4" r="3.5" fill="#111"/>
<text x="743.6" y="206.4" font-size="14" font-weight="bold" fill="#111">3. Elmswell W</text>
<text x="743.6" y="224.4" font-size="11" fill="#555">sector 20km/90&#176;; barrel 5.0km</text>
<path d="M437.1,275.6 L480.8,441.5 L472.1,443.6 L463.3,445.2 L454.3,446.3 L445.4,447.0 L436.4,447.2 L427.4,446.9 L418.5,446.1 L409.6,444.9 L400.8,443.3 L392.0,441.1 L383.4,438.5 L375.0,435.5 L366.7,432.0 L358.6,428.1 L350.7,423.8 L343.1,419.1 L335.7,414.0 L328.6,408.5 L321.8,402.6 L315.3,396.4 L309.2,389.9 L303.4,383.0 L297.9,375.8 L292.9,368.4 L288.2,360.7 L284.0,352.8 L280.1,344.7 L276.7,336.4 L273.8,327.9 L271.2,319.3 L269.2,310.6 L267.6,301.7 L266.4,292.8 L265.8,283.9 L265.6,274.9 L265.9,265.9 L266.6,256.9 L267.8,248.0 L269.5,239.2 L271.6,230.5 L274.2,221.9 L277.2,213.4 L280.7,205.2 L284.6,197.1 L288.9,189.2 L293.7,181.6 L298.8,174.2 L304.3,167.1 L310.1,160.3 L316.4,153.8 L322.9,147.6 L329.7,141.8 L336.9,136.4 L344.3,131.3 L352.0,126.7 L359.9,122.4 L368.0,118.6 L376.3,115.2 L384.8,112.2 L393.4,109.7 Z" fill="#3a7bd5" fill-opacity="0.15" stroke="#3a7bd5" stroke-width="1"/>
<circle cx="437.1" cy="275.6" r="42.9" fill="#e07b39" fill-opacity="0.30" stroke="#e07b39" stroke-width="1.5"/>
<circle cx="437.1" cy="275.6" r="3.5" fill="#111"/>
<text x="445.1" y="267.6" font-size="14" font-weight="bold" fill="#111">4. Brinkley Church</text>
<text x="445.1" y="285.6" font-size="11" fill="#555">sector 20km/90&#176;; barrel 5.0km</text>
<path d="M628.8,214.8 L585.5,48.8 L594.3,46.8 L603.1,45.2 L612.0,44.1 L621.0,43.5 L630.0,43.3 L638.9,43.6 L647.9,44.3 L656.8,45.6 L665.6,47.3 L674.3,49.4 L682.9,52.0 L691.4,55.1 L699.6,58.6 L707.7,62.5 L715.6,66.8 L723.2,71.6 L730.6,76.7 L737.7,82.2 L744.5,88.1 L750.9,94.3 L757.1,100.9 L762.9,107.7 L768.3,114.9 L773.3,122.3 L778.0,130.0 L782.2,137.9 L786.0,146.1 L789.4,154.4 L792.3,162.9 L794.8,171.5 L796.9,180.3 L798.5,189.1 L799.6,198.0 L800.2,207.0 L800.4,216.0 L800.1,224.9 L799.3,233.9 L798.1,242.8 L796.4,251.6 L794.3,260.3 L791.6,268.9 L788.6,277.4 L785.1,285.6 L781.2,293.7 L776.8,301.6 L772.1,309.2 L767.0,316.6 L761.4,323.7 L755.6,330.5 L749.3,336.9 L742.8,343.1 L735.9,348.9 L728.8,354.3 L721.3,359.3 L713.6,364.0 L705.7,368.2 L697.6,372.0 L689.3,375.4 L680.8,378.3 L672.1,380.8 Z" fill="#3a7bd5" fill-opacity="0.15" stroke="#3a7bd5" stroke-width="1"/>
<circle cx="628.8" cy="214.8" r="42.9" fill="#e07b39" fill-opacity="0.30" stroke="#e07b39" stroke-width="1.5"/>
<circle cx="628.8" cy="214.8" r="3.5" fill="#111"/>
<text x="636.8" y="206.8" font-size="14" font-weight="bold" fill="#111">5. Bury St Edmunds S</text>
<text x="636.8" y="224.8" font-size="11" fill="#555">sector 20km/90&#176;; barrel 5.0km</text>
<path d="M293.4,286.2 L385.0,431.2 L377.3,435.8 L369.4,440.0 L361.2,443.8 L352.9,447.1 L344.4,450.0 L335.7,452.4 L327.0,454.4 L318.1,456.0 L309.2,457.0 L300.2,457.6 L291.2,457.7 L282.3,457.4 L273.3,456.6 L264.4,455.3 L255.6,453.6 L246.9,451.3 L238.3,448.7 L229.9,445.6 L221.7,442.0 L213.6,438.1 L205.8,433.7 L198.2,428.9 L190.8,423.7 L183.8,418.2 L177.0,412.3 L170.6,406.0 L164.5,399.4 L158.7,392.5 L153.3,385.3 L148.3,377.9 Z" fill="#3a7bd5" fill-opacity="0.15" stroke="#3a7bd5" stroke-width="1"/>
<circle cx="293.4" cy="286.2" r="4.3" fill="#e07b39" fill-opacity="0.30" stroke="#e07b39" stroke-width="1.5"/>
<circle cx="293.4" cy="286.2" r="3.5" fill="#111"/>
<text x="301.4" y="278.2" font-size="14" font-weight="bold" fill="#111">6. Cambridge South</text>
<text x="301.4" y="296.2" font-size="11" fill="#555">sector 20km/45&#176;; barrel 0.5km</text>
<path d="M214.4,225.5 L105.5,92.9 L112.6,87.4 L120.0,82.2 L127.6,77.5 L135.5,73.1 L143.6,69.2 L151.8,65.7 L160.3,62.7 L168.9,60.1 L177.6,57.9 L186.4,56.2 L195.3,55.0 L204.2,54.2 L213.2,53.9 L222.2,54.1 L231.2,54.7 L240.1,55.8 L248.9,57.4 L257.7,59.4 L266.3,61.9 L274.8,64.9 L283.1,68.2 L291.2,72.0 L299.2,76.3 L306.9,80.9 L314.3,85.9 L321.5,91.4 L328.3,97.1 L334.9,103.3 L341.1,109.7 L347.0,116.5 Z" fill="#3a7bd5" fill-opacity="0.15" stroke="#3a7bd5" stroke-width="1"/>
<circle cx="214.4" cy="225.5" r="4.3" fill="#e07b39" fill-opacity="0.30" stroke="#e07b39" stroke-width="1.5"/>
<circle cx="214.4" cy="225.5" r="3.5" fill="#111"/>
<text x="222.4" y="217.5" font-size="14" font-weight="bold" fill="#111">7. Hardwick</text>
<text x="222.4" y="235.5" font-size="11" fill="#555">sector 20km/45&#176;; barrel 0.5km</text>
<circle cx="149.2" cy="257.8" r="25.7" fill="#e07b39" fill-opacity="0.15" stroke="#e07b39" stroke-width="1.5"/>
<circle cx="149.2" cy="257.8" r="3.5" fill="#111"/>
<text x="157.2" y="249.8" font-size="14" font-weight="bold" fill="#111">8. Gransden Lodge</text>
<text x="157.2" y="267.8" font-size="11" fill="#555">finish ring 3km</text>
<text x="18" y="32" font-size="20" font-weight="bold">DAY6</text>
<line x1="18" y1="489" x2="104" y2="489" stroke="#000" stroke-width="2"/>
<text x="18" y="483" font-size="12">10 km</text>
<text x="906" y="26" font-size="13">N &#8593;</text>
</svg>
