<svg xmlns="http://www.w3.org/2000/svg" width="950" height="557" viewBox="0 0 950 557" font-family="sans-serif">
<rect width="100%" height="100%" fill="#fbfbf9"/>
<path d="M873.2,220.4 L706.2,163.6 L163.6,363.1 L606.2,355.3 L384.3,393.5 L273.8,328.1 L522.8,220.8 L786.4,221.7 L873.2,220.4" fill="none" stroke="#999" stroke-width="1.5" stroke-dasharray="6 4"/>
<line x1="883.8" y1="189.5" x2="862.5" y2="251.4" stroke="#0a7" stroke-width="3"/>
<circle cx="873.2" cy="220.4" r="3.5" fill="#0a7"/>
<text x="881.2" y="212.4" font-size="14" font-weight="bold" fill="#053">0. Gransden Lodge</text>
<text x="881.2" y="230.4" font-size="11" fill="#555">START line &#177;5km</text>
<path d="M706.2,163.6 L612.9,71.9 L617.8,67.1 L623.0,62.6 L628.4,58.4 L634.0,54.5 L639.8,50.8 L645.8,47.5 L651.9,44.5 L658.2,41.8 L664.7,39.5 L671.2,37.5 L677.9,35.8 L684.6,34.5 L691.4,33.6 L698.2,33.0 L705.1,32.7 L711.9,32.8 L718.7,33.3 L725.5,34.2 L732.3,35.3 L739.0,36.9 L745.6,38.8 L752.0,41.0 L758.4,43.6 L764.6,46.5 L770.6,49.7 L776.5,53.2 L782.2,57.0 L787.7,61.2 L792.9,65.6 L797.9,70.2 Z" fill="#3a7bd5" fill-opacity="0.15" stroke="#3a7bd5" stroke-width="1"/>
<circle cx="706.2" cy="163.6" r="3.3" fill="#e07b39" fill-opacity="0.30" stroke="#e07b39" stroke-width="1.5"/>
<circle cx="706.2" cy="163.6" r="3.5" fill="#111"/>
<text x="714.2" y="155.6" font-size="14" font-weight="bold" fill="#111">1. Sackville</text>
<text x="714.2" y="173.6" font-size="11" fill="#555">sector 20km/45&#176;; barrel 0.5km</text>
<path d="M163.6,363.1 L188.6,491.6 L181.9,492.7 L175.1,493.5 L168.2,493.9 L161.4,494.0 L154.5,493.7 L147.7,493.0 L140.9,492.0 L134.2,490.6 L127.6,488.9 L121.1,486.9 L114.6,484.5 L108.4,481.7 L102.2,478.7 L96.3,475.3 L90.5,471.6 L84.9,467.7 L79.5,463.4 L74.4,458.9 L69.5,454.1 L64.9,449.0 L60.5,443.7 L56.4,438.2 L52.6,432.5 L49.2,426.6 L46.0,420.5 L43.2,414.3 L40.6,407.9 L38.5,401.4 L36.6,394.8 L35.1,388.2 L34.0,381.4 L33.2,374.6 L32.8,367.8 L32.7,360.9 L33.0,354.1 L33.7,347.2 L34.7,340.5 L36.1,333.7 L37.8,327.1 L39.8,320.6 L42.2,314.2 L44.9,307.9 L48.0,301.7 L51.4,295.8 L55.0,290.0 L59.0,284.4 L63.3,279.0 L67.8,273.9 L72.6,269.0 L77.7,264.4 L82.9,260.0 L88.5,256.0 L94.2,252.2 L100.1,248.7 L106.1,245.5 L112.4,242.7 L118.7,240.2 L125.2,238.0 L131.8,236.1 L138.5,234.7 Z" fill="#3a7bd5" fill-opacity="0.15" stroke="#3a7bd5" stroke-width="1"/>
<circle cx="163.6" cy="363.1" r="32.7" fill="#e07b39" fill-opacity="0.30" stroke="#e07b39" stroke-width="1.5"/>
<circle cx="163.6" cy="363.1" r="3.5" fill="#111"/>
<text x="171.6" y="355.1" font-size="14" font-weight="bold" fill="#111">2. Moreton-in-marsh</text>
<text x="171.6" y="373.1" font-size="11" fill="#555">sector 20km/90&#176;; barrel 5.0km</text>
<path d="M606.2,355.3 L594.6,224.9 L601.4,224.5 L608.2,224.4 L615.1,224.7 L621.9,225.4 L628.7,226.4 L635.4,227.7 L642.0,229.4 L648.6,231.5 L655.0,233.9 L661.3,236.6 L667.4,239.6 L673.4,243.0 L679.2,246.7 L684.8,250.7 L690.1,254.9 L695.3,259.4 L700.2,264.2 L704.8,269.3 L709.2,274.6 L713.2,280.1 L717.0,285.8 L720.5,291.7 L723.7,297.7 L726.5,304.0 L729.1,310.3 L731.2,316.8 L733.1,323.4 L734.6,330.1 L735.7,336.9 L736.5,343.7 L736.9,350.5 L737.0,357.4 L736.7,364.2 L736.1,371.0 L735.1,377.8 L733.7,384.5 L732.0,391.2 L730.0,397.7 L727.6,404.1 L724.8,410.4 L721.8,416.6 L718.4,422.5 L714.8,428.3 L710.8,433.9 L706.5,439.3 L702.0,444.4 L697.2,449.3 L692.2,453.9 L686.9,458.3 L681.4,462.4 L675.7,466.2 L669.8,469.6 L663.7,472.8 L657.5,475.7 L651.1,478.2 L644.6,480.4 L638.0,482.2 L631.3,483.7 L624.6,484.9 L617.8,485.6 Z" fill="#3a7bd5" fill-opacity="0.15" stroke="#3a7bd5" stroke-width="1"/>
<circle cx="606.2" cy="355.3" r="32.7" fill="#e07b39" fill-opacity="0.30" stroke="#e07b39" stroke-width="1.5"/>
<circle cx="606.2" cy="355.3" r="3.5" fill="#111"/>
<text x="614.2" y="347.3" font-size="14" font-weight="bold" fill="#111">3. Bletchley</text>
<text x="614.2" y="365.3" font-size="11" fill="#555">sector 20km/90&#176;; barrel 5.0km</text>
<path d="M384.3,393.5 L458.7,501.2 L453.0,504.9 L447.0,508.3 L440.9,511.5 L434.7,514.3 L428.3,516.7 L421.8,518.9 L415.2,520.7 L408.5,522.1 L401.7,523.2 L394.9,523.9 L388.1,524.3 L381.2,524.3 L374.4,524.0 L367.6,523.3 L360.8,522.2 L354.1,520.8 L347.5,519.1 L340.9,517.0 L334.5,514.5 L328.3,511.8 L322.2,508.7 L316.2,505.2 L310.5,501.5 L304.9,497.5 L299.6,493.2 L294.5,488.6 L289.6,483.8 L285.0,478.7 L280.7,473.4 L276.6,467.9 Z" fill="#3a7bd5" fill-opacity="0.15" stroke="#3a7bd5" stroke-width="1"/>
<circle cx="384.3" cy="393.5" r="3.3" fill="#e07b39" fill-opacity="0.30" stroke="#e07b39" stroke-width="1.5"/>
<circle cx="384.3" cy="393.5" r="3.5" fill="#111"/>
<text x="392.3" y="385.5" font-size="14" font-weight="bold" fill="#111">4. Bicester North West</text>
<text x="392.3" y="403.5" font-size="11" fill="#555">sector 20km/45&#176;; barrel 0.5km</text>
<path d="M273.8,328.1 L266.0,458.8 L259.1,458.2 L252.4,457.2 L245.6,455.9 L239.0,454.3 L232.4,452.3 L226.0,449.9 L219.7,447.3 L213.5,444.3 L207.5,440.9 L201.7,437.3 L196.1,433.4 L190.7,429.2 L185.5,424.7 L180.6,419.9 L175.9,414.9 L171.5,409.7 L167.4,404.2 L163.5,398.5 L160.0,392.7 L156.8,386.6 L153.9,380.4 L151.3,374.1 L149.1,367.6 L147.2,361.0 L145.6,354.3 L144.4,347.6 L143.6,340.8 L143.1,334.0 L143.0,327.1 L143.2,320.3 L143.8,313.4 L144.8,306.6 L146.1,299.9 L147.7,293.3 L149.7,286.7 L152.0,280.3 L154.7,274.0 L157.7,267.8 L161.0,261.8 L164.7,256.0 L168.6,250.4 L172.8,245.0 L177.3,239.8 L182.0,234.9 L187.0,230.2 L192.3,225.8 L197.8,221.7 L203.4,217.8 L209.3,214.3 L215.4,211.1 L221.6,208.2 L227.9,205.6 L234.4,203.4 L241.0,201.5 L247.6,199.9 L254.4,198.7 L261.2,197.9 L268.0,197.4 L274.9,197.3 L281.7,197.5 Z" fill="#3a7bd5" fill-opacity="0.15" stroke="#3a7bd5" stroke-width="1"/>
<circle cx="273.8" cy="328.1" r="32.7" fill="#e07b39" fill-opacity="0.30" stroke="#e07b39" stroke-width="1.5"/>
<circle cx="273.8" cy="328.1" r="3.5" fill="#111"/>
<text x="281.8" y="320.1" font-size="14" font-weight="bold" fill="#111">5. Swalcliffe</text>
<text x="281.8" y="338.1" font-size="11" fill="#555">sector 20km/90&#176;; barrel 5.0km</text>
<path d="M522.8,220.8 L413.6,148.7 L417.5,143.1 L421.7,137.7 L426.2,132.5 L431.0,127.6 L436.0,122.9 L441.2,118.5 L446.7,114.3 L452.4,110.5 L458.2,107.0 L464.3,103.7 L470.5,100.8 L476.8,98.3 L483.3,96.0 L489.9,94.1 L496.6,92.6 L503.3,91.4 L510.1,90.5 L516.9,90.0 L523.8,89.9 L530.6,90.1 L537.5,90.7 L544.2,91.7 L551.0,93.0 L557.6,94.6 L564.2,96.6 L570.6,99.0 L576.9,101.6 L583.1,104.6 L589.1,107.9 L594.9,111.6 Z" fill="#3a7bd5" fill-opacity="0.15" stroke="#3a7bd5" stroke-width="1"/>
<circle cx="522.8" cy="220.8" r="3.3" fill="#e07b39" fill-opacity="0.30" stroke="#e07b39" stroke-width="1.5"/>
<circle cx="522.8" cy="220.8" r="3.5" fill="#111"/>
<text x="530.8" y="212.8" font-size="14" font-weight="bold" fill="#111">6. Northampton South</text>
<text x="530.8" y="230.8" font-size="11" fill="#555">sector 20km/45&#176;; barrel 0.5km</text>
<path d="M786.4,221.7 L879.3,313.8 L874.4,318.6 L869.2,323.1 L863.8,327.3 L858.2,331.2 L852.3,334.8 L846.3,338.1 L840.2,341.0 L833.8,343.7 L827.4,346.0 L820.8,348.0 L814.2,349.6 L807.4,350.9 L800.6,351.8 L793.8,352.4 L787.0,352.6 L780.1,352.4 L773.3,351.9 L766.5,351.0 L759.7,349.8 L753.1,348.3 L746.5,346.3 L740.0,344.1 L733.7,341.5 L727.5,338.6 L721.5,335.3 L715.6,331.8 L709.9,327.9 L704.5,323.8 L699.3,319.3 L694.3,314.6 Z" fill="#3a7bd5" fill-opacity="0.15" stroke="#3a7bd5" stroke-width="1"/>
<circle cx="786.4" cy="221.7" r="3.3" fill="#e07b39" fill-opacity="0.30" stroke="#e07b39" stroke-width="1.5"/>
<circle cx="786.4" cy="221.7" r="3.5" fill="#111"/>
<text x="794.4" y="213.7" font-size="14" font-weight="bold" fill="#111">7. St Neots S</text>
<text x="794.4" y="231.7" font-size="11" fill="#555">sector 20km/45&#176;; barrel 0.5km</text>
<circle cx="873.2" cy="220.4" r="19.6" fill="#e07b39" fill-opacity="0.15" stroke="#e07b39" stroke-width="1.5"/>
<circle cx="873.2" cy="220.4" r="3.5" fill="#111"/>
<text x="881.2" y="212.4" font-size="14" font-weight="bold" fill="#111">8. Gransden Lodge</text>
<text x="881.2" y="230.4" font-size="11" fill="#555">finish ring 3km</text>
<text x="18" y="32" font-size="20" font-weight="bold">DAY7</text>
<line x1="18" y1="537" x2="83" y2="537" stroke="#000" stroke-width="2"/>
<text x="18" y="531" font-size="12">10 km</text>
<text x="906" y="26" font-size="13">N &#8593;</text>
</svg>
